<svg xmlns="http://www.w3.org/2000/svg" viewBox="0 0 448.05 436.7"><defs><style>.cls-1{fill:#fff;}</style></defs><title>arrow-right</title><g id="Layer_2" data-name="Layer 2"><g id="Layer_1-2" data-name="Layer 1"><path class="cls-1" d="M190.5,29.25l22.2-22.2a23.9,23.9,0,0,1,33.9,0L441,201.35a23.9,23.9,0,0,1,0,33.9L246.6,429.65a23.9,23.9,0,0,1-33.9,0l-22.2-22.2a24,24,0,0,1,.4-34.3l120.5-114.8H24a23.94,23.94,0,0,1-24-24v-32a23.94,23.94,0,0,1,24-24H311.4L190.9,63.55A23.85,23.85,0,0,1,190.5,29.25Z"/></g></g></svg>