<?xml version="1.0" encoding="utf-8"?>
<!-- Generator: Adobe Illustrator 23.0.1, SVG Export Plug-In . SVG Version: 6.00 Build 0)  -->
<svg version="1.1" id="Layer_1" xmlns="http://www.w3.org/2000/svg" xmlns:xlink="http://www.w3.org/1999/xlink" x="0px" y="0px"
	 viewBox="0 0 144.5 144.5" style="enable-background:new 0 0 144.5 144.5;" xml:space="preserve">
<style type="text/css">
	.iconclock0{fill:currentColor;}
</style>
<g>
	<path class="iconclock0" d="M72.3,0c13,0,25.1,3.3,36.1,9.8s19.9,15.3,26.4,26.4s9.8,23.1,9.8,36.1s-3.3,25.1-9.8,36.1s-15.3,19.9-26.4,26.4
		s-23.1,9.8-36.1,9.8s-25.1-3.3-36.1-9.8s-19.9-15.3-26.4-26.4S0,85.3,0,72.3s3.3-25.1,9.8-36.1S25.1,16.3,36.1,9.8S59.3,0,72.3,0z
		 M135.2,72.3c0-11.5-2.8-22-8.5-31.6s-13.3-17.2-23-22.9S83.5,9.3,72.1,9.3c-11.4,0-21.9,2.8-31.5,8.5s-17.2,13.3-22.9,23
		S9.3,61.1,9.3,72.4c0,11.4,2.8,21.9,8.5,31.5s13.3,17.2,23,22.9s20.3,8.5,31.6,8.5c11.4,0,21.9-2.8,31.5-8.5s17.2-13.3,22.9-23
		S135.2,83.5,135.2,72.3z M91.8,97.9c0.8,0.6,1.7,0.8,2.6,0.7c1-0.1,1.7-0.5,2.3-1.3l2.3-3.5c0.6-0.8,0.8-1.6,0.7-2.5
		c-0.1-0.9-0.5-1.6-1.3-2.2L77.8,74V31.5c0-1-0.3-1.8-1-2.5c-0.7-0.7-1.5-1-2.5-1h-4.1c-1,0-1.8,0.3-2.5,1c-0.7,0.7-1,1.5-1,2.5
		v46.6c0,1.2,0.5,2,1.5,2.6L91.8,97.9z"/>
</g>
</svg>
