<?xml version="1.0" encoding="utf-8"?>
<!-- Generator: Adobe Illustrator 23.0.1, SVG Export Plug-In . SVG Version: 6.00 Build 0)  -->
<svg version="1.1" id="Layer_1" xmlns="http://www.w3.org/2000/svg" xmlns:xlink="http://www.w3.org/1999/xlink" x="0px" y="0px"
	 viewBox="0 0 154.9 154.9" style="enable-background:new 0 0 154.9 154.9;" xml:space="preserve">
<style type="text/css">
	.iconenvelope0{fill:currentColor;}
</style>
<g>
	<path class="iconenvelope0" d="M105.6,15.7c14.3,11.3,28.9,23.1,43.9,35.4c3.6,3,5.4,6.8,5.4,11.2v78c0,4-1.4,7.5-4.2,10.3c-2.8,2.8-6.3,4.2-10.3,4.2
		H14.5c-4,0-7.5-1.4-10.3-4.2c-2.8-2.8-4.2-6.3-4.2-10.3v-78c0-4.4,1.8-8.2,5.4-11.2C20.4,39,35,27.2,49.3,15.7l3-2.7
		c4.8-4,8.7-6.9,11.5-8.5c4.8-3,9.4-4.5,13.6-4.5s8.8,1.5,13.6,4.5c2.8,1.8,6.7,4.6,11.5,8.5C104,14.4,105,15.3,105.6,15.7z
		 M140.4,145.2c1.4,0,2.6-0.5,3.5-1.4c0.9-0.9,1.4-2.1,1.4-3.5v-78c0-1.4-0.6-2.6-1.8-3.6c-13.9-11.5-28.5-23.3-43.9-35.4l-3-2.4
		c-4-3.4-7.2-5.8-9.4-7.3c-3.8-2.6-7.1-3.9-9.7-3.9s-5.8,1.3-9.7,3.9c-2.2,1.4-5.3,3.8-9.4,7.3l-3,2.4
		C40.2,35.4,25.6,47.2,11.5,58.7c-1.2,1-1.8,2.2-1.8,3.6v78c0,1.4,0.5,2.6,1.4,3.5c0.9,0.9,2.1,1.4,3.5,1.4H140.4z M137.6,79.9
		l-1.5-2.1c-0.6-0.6-1.4-1-2.4-1.1c-1-0.1-1.9,0.2-2.7,0.8L96.8,105c-4,3.4-7.3,5.8-9.7,7.3c-3.8,2.6-7.1,3.9-9.7,3.9
		s-5.8-1.3-9.7-3.9c-2.4-1.4-5.6-3.8-9.7-7.3L23.9,77.4c-0.8-0.6-1.7-0.9-2.7-0.8c-1,0.1-1.8,0.5-2.4,1.1l-1.5,2.1
		c-0.6,0.8-0.9,1.7-0.8,2.6c0.1,0.9,0.6,1.8,1.4,2.6l34.5,27.5c4.6,4,8.5,7,11.5,8.8c5,3,9.6,4.5,13.6,4.5s8.6-1.5,13.6-4.5
		c2.8-1.8,6.7-4.7,11.5-8.8L137,85c0.8-0.8,1.3-1.7,1.4-2.6C138.5,81.5,138.2,80.7,137.6,79.9z"/>
</g>
</svg>
