<?xml version="1.0" encoding="utf-8"?>
<!-- Generator: Adobe Illustrator 23.0.1, SVG Export Plug-In . SVG Version: 6.00 Build 0)  -->
<svg version="1.1" id="Layer_1" xmlns="http://www.w3.org/2000/svg" xmlns:xlink="http://www.w3.org/1999/xlink" x="0px" y="0px"
	 viewBox="0 0 174.2 183.8" style="enable-background:new 0 0 174.2 183.8;" xml:space="preserve">
<style type="text/css">
	.iconphone0{fill:currentColor;}
</style>
<g>
	<path class="iconphone0" d="M167.7,8.9c2,0.2,3.6,1.2,4.8,2.9c1.1,1.7,1.7,3.5,1.7,5.4c0,30.2-7.1,58.2-21.4,84.1
		c-14.1,25.1-33,45.1-56.8,60c-24.5,15.1-51.1,22.6-79.7,22.6c-1.8,0-3.5-0.6-5.1-1.8s-2.5-2.9-2.7-5l-8.2-37.4
		c-0.5-1.9-0.2-3.8,0.7-5.7s2.3-3.2,4.1-4l38.1-17.2c1.6-0.7,3.3-0.9,5.1-0.5s3.3,1.4,4.4,3.1l16.7,21.6
		c13.4-6.5,25.2-15.2,35.6-26.2s18.6-23.5,24.7-37.4l-20.4-18c-1.4-1.2-2.3-2.7-2.7-4.5c-0.5-1.8-0.3-3.7,0.3-5.6l16.3-40.2
		c0.7-1.7,1.9-3,3.7-4s3.6-1.2,5.4-0.7L167.7,8.9z"/>
</g>
</svg>
