<?xml version="1.0" encoding="utf-8"?>
<!-- Generator: Adobe Illustrator 25.0.1, SVG Export Plug-In . SVG Version: 6.00 Build 0)  -->
<svg version="1.1" id="Layer_1" xmlns="http://www.w3.org/2000/svg" xmlns:xlink="http://www.w3.org/1999/xlink" x="0px" y="0px"
	 viewBox="0 0 196 133" style="enable-background:new 0 0 196 133;" xml:space="preserve">
<style type="text/css">
	.st0{fill:#A3A6B0;}
</style>
<path class="st0" d="M148.8,97.8L126.5,79c-3.6-3.1-8.7-3.3-12.6-1.1l-4.8-4c4.5-6.1,7.1-13.5,7.1-21.6c0-20.2-16.3-36.5-36.5-36.5
	c-20.2,0-36.5,16.3-36.5,36.5c0,20.2,16.3,36.5,36.5,36.5c9.4,0,18-3.6,24.5-9.4l4.9,4.1c-1.6,4.2-0.5,9.2,3.2,12.3l22.4,18.8
	c2,1.7,4.5,2.6,7,2.6c3.2,0,6.3-1.4,8.4-3.9C154.1,108.6,153.5,101.7,148.8,97.8z M50.6,52.4c0-16.1,13.1-29.2,29.2-29.2
	c16.1,0,29.2,13.1,29.2,29.2c0,7.4-2.7,14.1-7.2,19.2c-0.2,0.2-0.4,0.3-0.6,0.5c-0.1,0.1-0.1,0.2-0.2,0.3
	c-5.3,5.6-12.9,9.2-21.2,9.2C63.6,81.6,50.6,68.5,50.6,52.4z M144.6,108.5C144.6,108.5,144.6,108.5,144.6,108.5
	c-1.3,1.5-3.6,1.7-5.1,0.4l-22.4-18.8c-0.8-0.6-1.2-1.5-1.3-2.5c-0.2-2,1.3-3.8,3.3-3.9h0.3c0.9,0,1.7,0.3,2.3,0.8l22.4,18.8
	c0.8,0.6,1.2,1.5,1.3,2.5C145.5,106.8,145.2,107.8,144.6,108.5z"/>
</svg>
